<svg xmlns="http://www.w3.org/2000/svg" viewBox="0 0 100 100"><circle cx="50" cy="50" r="45" fill="none" stroke="#ff9202" stroke-width="3"/><circle cx="50" cy="50" r="8" fill="#ff9202"/><line x1="50" y1="5" x2="50" y2="25" stroke="#ff9202" stroke-width="2"/><line x1="50" y1="75" x2="50" y2="95" stroke="#ff9202" stroke-width="2"/><line x1="5" y1="50" x2="25" y2="50" stroke="#ff9202" stroke-width="2"/><line x1="75" y1="50" x2="95" y2="50" stroke="#ff9202" stroke-width="2"/><line x1="18" y1="18" x2="32" y2="32" stroke="#ff9202" stroke-width="2"/><line x1="68" y1="68" x2="82" y2="82" stroke="#ff9202" stroke-width="2"/><line x1="82" y1="18" x2="68" y2="32" stroke="#ff9202" stroke-width="2"/><line x1="32" y1="68" x2="18" y2="82" stroke="#ff9202" stroke-width="2"/><circle cx="50" cy="5" r="4" fill="#ff9202"/><circle cx="50" cy="95" r="4" fill="#ff9202"/><circle cx="5" cy="50" r="4" fill="#ff9202"/><circle cx="95" cy="50" r="4" fill="#ff9202"/><circle cx="18" cy="18" r="3" fill="#ff9202"/><circle cx="82" cy="82" r="3" fill="#ff9202"/><circle cx="82" cy="18" r="3" fill="#ff9202"/><circle cx="18" cy="82" r="3" fill="#ff9202"/></svg>
