<svg viewBox="0 0 256 185" xmlns="http://www.w3.org/2000/svg"><path fill="#2396ED" d="M250.716 70.497c-5.333-3.645-17.576-4.997-27.02-3.158-1.227-9.24-6.27-17.293-15.402-24.56l-5.253-3.645-3.625 5.317c-4.6 7.072-6.87 16.9-6.127 26.337.31 3.448 1.47 9.618 5.138 15.023-3.586 1.98-10.685 4.68-20.044 4.504H.424l-.384 1.898c-1.8 10.532-1.8 43.386 24.834 68.63C44.252 180.466 70.97 192 106.348 192c75.38 0 131.19-35.27 157.348-99.36 10.262.2 32.37.064 43.71-21.94.306-.499 1.017-1.85 3.09-6.04l1.132-2.35-4.912-3.313zm-195.14-8.946h22.28v22.573H55.577zm0-31.096h22.28V53.03H55.577zM86.89 61.55h22.282v22.574H86.891zm0 31.097h22.282v22.573H86.891zM56.06 92.648h22.28v22.573H56.06zm30.83 0h22.282v22.573H86.891zm31.313 0h22.28v22.573h-22.28zm31.314 0h22.282v22.573h-22.282zm31.312 0h22.282v22.573h-22.282zM118.204 61.55h22.28v22.574h-22.28zm31.314 0h22.282v22.574h-22.282z"/></svg>