<svg xmlns="http://www.w3.org/2000/svg" viewBox="0 0 128 128"><path fill="#fff" d="M126.67 98.44c-4.56 1.16-7.38.05-9.91-3.75-5.68-8.51-11.95-16.63-18-24.9-.78-1.07-1.59-2.12-2.6-3.45C89 76 81.85 85.2 75.14 94.77c-2.4 3.42-4.92 4.91-9.22 3.71l26.5-33.63-25.45-32.69c4.42-.77 7.2-.08 9.72 3.57 5.51 7.99 11.64 15.56 17.8 23.74 6.22-8.2 12.34-15.98 17.86-24.04 2.36-3.46 5.03-4.37 9.13-3.3L96.42 65.27l27.95 33.17z"/><path fill="#fff" d="M1.33 61.74c.72-3.61 1.2-7.29 2.2-10.83 6-21.43 30.6-30.34 47.5-17.06C60.93 41.64 63.39 52.62 62.9 65H7.1c-.84 22.21 15.15 35.62 35.53 28.78 7.15-2.4 11.36-8 13.47-15 1.07-3.51 2.84-4.06 6.14-3.06-1.69 8.76-5.52 16.08-13.52 20.66-12 6.86-29.13 5.24-38.59-3.72C3.24 86.59.7 78.84.33 70.33c0-1.11 0-2.22 0-3.33zm5.63-1.2h50.7c-.32-15.46-11.58-27.39-25.86-27.14-15.35.27-25.11 11.37-24.84 27.14z"/></svg>
