<svg xmlns="http://www.w3.org/2000/svg" viewBox="0 0 256 549"><path fill="#01EC64" d="M175.622 61.108C152.612 33.807 132.797 6.078 128.749.32a1.03 1.03 0 0 0-1.498 0c-4.048 5.759-23.863 33.487-46.873 60.788c-197.542 251.907 31.064 421.886 31.064 421.886l1.86 1.86a58 58 0 0 0 1.489 56.96h24.98a58 58 0 0 0 1.489-56.96l1.86-1.86s228.396-170.036 31.502-421.886"/><path fill="#00ED64" d="M175.622 61.108C152.612 33.807 132.797 6.078 128.749.32a1.03 1.03 0 0 0-.749-.32v484.994a58 58 0 0 1 12.489 56.96l1.86-1.86s228.396-170.036 31.502-421.886z" opacity=".5"/><path fill="#1A3C34" d="m135.556 480.14l-7.168-3.2s.848-34.848 11.776-37.408c10.928-2.56 22.336 39.616 22.336 39.616l-17.184-11.776s-5.312 2.24-7.68 6.08a22 22 0 0 0-2.08 6.688"/></svg>
