<svg xmlns="http://www.w3.org/2000/svg" viewBox="0 0 128 128"><path fill="#336791" d="M93.809 92.112c.785-6.533.55-7.492 5.416-6.433l1.235.108c3.742.17 8.637-.602 11.513-1.938 6.191-2.873 9.861-7.668 3.758-6.408-13.924 2.873-14.881-1.842-14.881-1.842 14.703-21.815 20.849-49.508 15.545-56.287-14.47-18.487-39.508-9.74-39.93-9.496l-.134.025c-2.751-.571-5.83-.912-9.289-.968-6.301-.104-11.082 1.652-14.535 4.41 0 0-44.097-18.162-42.045 22.838.437 8.711 12.556 65.912 27.015 48.63 5.283-6.317 10.399-11.66 10.399-11.66 2.54 1.686 5.593 2.565 8.834 2.255l.249-.212c-.078.796-.044 1.575.099 2.497-3.757 4.199-2.653 4.936-10.166 6.482-7.602 1.566-3.136 4.355-.221 5.084 3.535.884 11.712 2.136 17.238-5.598l-.22.882c1.474 1.18 1.375 8.477 1.583 13.69.208 5.214.37 10.135 1.31 12.987.94 2.853 2.115 10.399 11.119 8.265 7.521-1.783 13.898-4.263 14.57-27.896"/><path fill="#fff" d="M66.809 35.958c-1.96-.121-3.705.498-4.29.952-.584.455-1.656 1.298-1.399 7.98.064 1.683 1.263 14.535 2.33 16.632 1.067 2.096 2.591 3.634 5.404 3.15 2.576-.443 3.96-1.695 4.226-5.2.3-3.93.467-6.398.467-6.398s.139-7.716.043-9.846c-.13-2.894-.48-4.392-.96-5.263-.553-1.006-2.893-1.883-5.82-2.007z"/><path fill="#fff" d="M48.457 33.288c1.907-.109 3.591.563 4.152 1.048.56.485 1.607 1.378 1.384 8.47-.056 1.783-1.132 15.39-2.234 17.603-1.102 2.213-2.562 3.842-5.406 3.337-2.604-.463-3.859-1.804-4.11-5.503-.28-4.152-.421-6.756-.421-6.756s-.169-8.156-.087-10.41c.112-3.063.467-4.646.934-5.563.539-1.062 2.846-2.105 5.788-2.226z"/><path fill="#336791" d="M90.212 93.771c-.82 6.15.376 11.423 1.166 14.089s1.727 8.769 9.541 6.958c6.522-1.51 9.109-4.903 9.849-10.659.675-5.243 1.861-10.408 1.861-10.408s-.312-.773-4.725-.194c-4.413.58-14.263 2.392-14.263 2.392s-2.55-.105-3.429-2.178"/><path fill="#fff" d="M90.831 76.675c.07 5.205.166 10.583-.066 12.846-.367 3.582-1.249 5.473.662 6.221 1.911.748 7.783-1.7 8.677-2.855.894-1.155 2.039-4.538 2.453-8.636.376-3.726.863-12.621.916-14.234.049-1.482.42-5.965-.853-5.674-1.693.388-6.232 4.266-8.925 6.373-2.394 1.874-2.913 2.96-2.864 5.959z"/></svg>
