<svg xmlns="http://www.w3.org/2000/svg" viewBox="0 0 48 48">
  <linearGradient id="pyTop" x1="0%" y1="0%" x2="100%" y2="100%">
    <stop offset="0%" stop-color="#5A9FD4"/>
    <stop offset="100%" stop-color="#3776AB"/>
  </linearGradient>
  <linearGradient id="pyBot" x1="0%" y1="0%" x2="100%" y2="100%">
    <stop offset="0%" stop-color="#FFD43B"/>
    <stop offset="100%" stop-color="#FFE873"/>
  </linearGradient>
  <path fill="url(#pyTop)" d="M24 4c-5 0-9 1.5-9 5v3h9v1H12s-6 0-6 9 5 9 5 9h3v-4s0-5 5-5h9s5 0 5-5V9c0-4-4-5-9-5zm-2 3a1.5 1.5 0 110 3 1.5 1.5 0 010-3z"/>
  <path fill="url(#pyBot)" d="M24 44c5 0 9-1.5 9-5v-3h-9v-1h12s6 0 6-9-5-9-5-9h-3v4s0 5-5 5h-9s-5 0-5 5v8c0 4 4 5 9 5zm2-3a1.5 1.5 0 110-3 1.5 1.5 0 010 3z"/>
</svg>
