<svg xmlns="http://www.w3.org/2000/svg" viewBox="0 0 128 128"><rect fill="#3178c6" width="128" height="128" rx="12"/><path fill="#fff" d="M82.16 88.13c2.87 1.54 6.13 2.72 9.29 3.37s6.5.97 9.71.97c3.12 0 5.96-.34 8.5-1.03s4.72-1.72 6.55-3.1 3.24-3.13 4.25-5.25 1.51-4.63 1.51-7.54c0-2.09-.33-3.94-.99-5.55s-1.61-3.07-2.86-4.38-2.79-2.52-4.63-3.62-3.96-2.2-6.37-3.25c-1.72-.76-3.24-1.49-4.54-2.18s-2.38-1.39-3.24-2.09-1.51-1.45-1.96-2.25-.67-1.71-.67-2.72c0-.91.2-1.74.6-2.47s.97-1.36 1.71-1.87 1.63-.91 2.68-1.19 2.22-.42 3.51-.42c.91 0 1.87.08 2.86.25s1.99.42 2.99.76 1.97.76 2.91 1.27 1.78 1.1 2.52 1.77v-9.67c-1.63-.63-3.41-1.1-5.32-1.4s-4.13-.45-6.66-.45c-3.08 0-5.87.38-8.38 1.14s-4.66 1.84-6.44 3.24-3.16 3.1-4.13 5.08-1.46 4.22-1.46 6.7c0 3.72 1.08 6.94 3.24 9.66s5.39 5.08 9.71 7.09c1.76.81 3.38 1.59 4.84 2.34s2.72 1.53 3.78 2.34 1.88 1.67 2.47 2.59.88 1.96.88 3.12c0 .84-.17 1.63-.51 2.38s-.87 1.4-1.59 1.96-1.63 1-2.73 1.33-2.42.49-3.96.49c-2.67 0-5.27-.59-7.82-1.77s-4.86-2.86-6.94-5.04zm-26.07-30.54h12.28v-8.38H41.08v8.38H53.3v35.07h10.28V57.59z"/></svg>
